# xmcd
#
# Track frame offsets:
#	150
#	11945
#	32380
#	45317
#	58285
#	70077
#	85440
#	102042
#	116665
#	132590
#	146202
#	159157
#	169382
#	183032
#	205360
#	219672
#	246467
#	256140
#	268892
#	285655
#	298147
#	314265
#
# Disc length: 4408 seconds
#
# Revision: 0
# Processed by: cddbd v1.4PL0 Copyright (c) Steve Scherf et al.
# Submitted via: dBpowerAMP V4.0
#
DISCID=56113616
DTITLE=Various Artist - Big Band Classics
DYEAR=1997
DGENRE=Big Band
TTITLE0=Ted Heath Big Band - Opus 1
TTITLE1=Don Lusher Big Band - Love for Saale
TTITLE2=Laurie Johnsons London Big Band - The Lady is a Tramp
TTITLE3=Kenny Baker and Orchestra - Little Jazz
TTITLE4=Ted Heath Band - Fine Romance
TTITLE5=Colin Busby Big Swing Band - April in Paris
TTITLE6=Laurie Johnsons London Big Band - Embraceable You
TTITLE7=Don Lusher Big Band - Cute
TTITLE8=Colin Busby Big Swing Band - Woodchoppers Ball
TTITLE9=Kenny Baker and Orchestra - Music goes Round and Round
TTITLE10=Laurie Johnsons London Big Band - From This Moment On
TTITLE11=Don Lusher Big Band - At Last
TTITLE12=Colin Busby Big Swing Band - Begin the Beguine
TTITLE13=Don Lusher Big Band - One O'Clock Jump
TTITLE14=Ted Heath Band - Deep Night
TTITLE15=Colin Busby Big Swing Band - Satin Doll
TTITLE16=Laurie Johnsons London Big Band - By Strauss
TTITLE17=Colin Busby Big Swing Band - String of Pearls
TTITLE18=Kenny Baker and Orchestra - Our Love is Here to Stay
TTITLE19=Don Lusher Big Band - Dont Get Around Much Anymore
TTITLE20=Ted Heath Band - Lullaby of Birdland
TTITLE21=Don Lusher Big Band - Dont Be That Way
EXTD=
EXTT0=
EXTT1=
EXTT2=
EXTT3=
EXTT4=
EXTT5=
EXTT6=
EXTT7=
EXTT8=
EXTT9=
EXTT10=
EXTT11=
EXTT12=
EXTT13=
EXTT14=
EXTT15=
EXTT16=
EXTT17=
EXTT18=
EXTT19=
EXTT20=
EXTT21=
PLAYORDER=
